<svg width="25" height="25" viewBox="0 0 25 25" fill="none" xmlns="http://www.w3.org/2000/svg">
<path d="M11.5354 2.74263C11.8688 1.86346 13.1302 1.86346 13.4646 2.74263L15.6209 8.71554C15.6961 8.91011 15.8285 9.07729 16.0008 9.19502C16.173 9.31274 16.3768 9.37547 16.5854 9.37492H21.8844C22.8636 9.37492 23.2906 10.5937 22.5209 11.1905L18.75 14.5833C18.5811 14.7131 18.4577 14.8931 18.3974 15.0975C18.3371 15.3018 18.3432 15.52 18.4146 15.7207L19.7917 21.5572C20.1271 22.4947 19.0417 23.2999 18.2209 22.7228L13.099 19.4728C12.9236 19.3496 12.7144 19.2834 12.5 19.2834C12.2856 19.2834 12.0765 19.3496 11.9011 19.4728L6.77919 22.7228C5.95939 23.2999 4.87294 22.4937 5.20835 21.5572L6.58544 15.7207C6.65687 15.52 6.66289 15.3018 6.60263 15.0975C6.54237 14.8931 6.41893 14.7131 6.25002 14.5833L2.47919 11.1905C1.70835 10.5937 2.13752 9.37492 3.1146 9.37492H8.41356C8.6222 9.37561 8.82613 9.31294 8.99837 9.1952C9.17061 9.07746 9.30305 8.9102 9.37815 8.71554L11.5344 2.74263H11.5354Z" stroke="black" stroke-width="2" stroke-linecap="round" stroke-linejoin="round"/>
</svg>
