<svg width="25" height="25" viewBox="0 0 25 25" fill="none" xmlns="http://www.w3.org/2000/svg">
<rect width="25" height="25" fill="white"/>
<path d="M11.2858 2.86014C11.6218 1.97395 12.8616 0.695618 14.258 2.86014L15.4037 8.88075C15.4796 9.07687 15.6131 9.24539 15.7867 9.36405C15.9602 9.48271 16.1657 9.54594 16.376 9.54539H21.7171C22.7041 9.54539 23.1346 10.7739 22.3586 11.3755L18.5578 14.7953C18.3875 14.9262 18.2631 15.1076 18.2024 15.3136C18.1416 15.5196 18.1477 15.7396 18.2197 15.9419L19.6078 21.8249C19.9458 22.7699 18.8518 23.5816 18.0244 22.9999L12.8618 19.7239C12.685 19.5997 12.4742 19.533 12.2581 19.533C12.042 19.533 11.8312 19.5997 11.6544 19.7239L6.49174 22.9999C5.66542 23.5816 4.57032 22.7689 4.90841 21.8249L6.29645 15.9419C6.36845 15.7396 6.37452 15.5196 6.31378 15.3136C6.25304 15.1076 6.12862 14.9262 5.95836 14.7953L2.15753 11.3755C1.38056 10.7739 1.81314 9.54539 2.798 9.54539H8.13911C8.34941 9.54609 8.55497 9.48292 8.72858 9.36423C8.90219 9.24555 9.03567 9.07695 9.11137 8.88075L11.2848 2.86014H11.2858Z" fill="#F8D24C" stroke="black" stroke-width="2" stroke-linecap="round" stroke-linejoin="round"/>
</svg>
